<svg width="136" height="137" viewBox="0 0 136 137" fill="none" xmlns="http://www.w3.org/2000/svg">
<path fill-rule="evenodd" clip-rule="evenodd" d="M68 136.78C105.555 136.78 136 106.336 136 68.7803C136 31.2249 105.555 0.780273 68 0.780273C30.4446 0.780273 0 31.2249 0 68.7803C0 106.336 30.4446 136.78 68 136.78ZM68 125.447C99.2961 125.447 124.667 100.076 124.667 68.7803C124.667 37.4841 99.2961 12.1136 68 12.1136C36.7039 12.1136 11.3333 37.4841 11.3333 68.7803C11.3333 100.076 36.7039 125.447 68 125.447Z" fill="url(#paint0_angular_64_1077)"/>
<path fill-rule="evenodd" clip-rule="evenodd" d="M129.096 55.1839C132.2 54.7835 135.041 56.975 135.441 60.0789C135.813 62.9643 136 65.8707 136 68.78C136 71.9096 133.463 74.4466 130.333 74.4466C127.204 74.4466 124.667 71.9096 124.667 68.78C124.667 66.3555 124.511 63.9336 124.201 61.5291C123.8 58.4252 125.992 55.5844 129.096 55.1839Z" fill="#150B4D"/>
<defs>
<radialGradient id="paint0_angular_64_1077" cx="0" cy="0" r="1" gradientUnits="userSpaceOnUse" gradientTransform="translate(68 68.7803) scale(68)">
<stop stop-color="#150B4D" stop-opacity="0"/>
<stop offset="1" stop-color="#150B4D"/>
</radialGradient>
</defs>
</svg>
