<svg width="81" height="56" viewBox="0 0 81 56" fill="none" xmlns="http://www.w3.org/2000/svg">
<mask id="path-1-outside-1_71_1075" maskUnits="userSpaceOnUse" x="0.836914" y="0.351562" width="80" height="55" fill="black">
<rect fill="white" x="0.836914" y="0.351562" width="80" height="55"/>
<path fill-rule="evenodd" clip-rule="evenodd" d="M22.0253 11.4457C22.0253 13.252 21.5509 14.9474 20.7198 16.4143C18.7653 21.0123 21.4998 32.6792 31.0159 33.8935C36.3986 34.1107 40.6958 38.5432 40.6958 43.9793C40.6958 49.5542 36.1764 54.0735 30.6016 54.0735C25.0267 54.0735 20.5074 49.5542 20.5074 43.9793C20.5074 41.9753 21.0913 40.1078 22.0984 38.5375C25.5395 29.7293 17.025 22.1818 11.8676 21.5397C6.32194 21.5056 1.83691 16.9994 1.83691 11.4457C1.83691 5.87088 6.35623 1.35156 11.9311 1.35156C17.506 1.35156 22.0253 5.87088 22.0253 11.4457ZM69.5135 21.5401C75.0884 21.5401 79.6077 17.0208 79.6077 11.4459C79.6077 5.87105 75.0884 1.35173 69.5135 1.35173C63.9387 1.35173 59.4193 5.87105 59.4193 11.4459C59.4193 17.0208 63.9387 21.5401 69.5135 21.5401ZM50.843 11.4459C50.843 13.2523 50.3685 14.9479 49.5373 16.4148C47.5831 21.0131 50.3177 32.6794 59.8335 33.8936C65.2163 34.1109 69.5134 38.5434 69.5134 43.9795C69.5134 49.5543 64.9941 54.0736 59.4192 54.0736C53.8443 54.0736 49.325 49.5543 49.325 43.9795C49.325 41.9755 49.909 40.108 50.916 38.5377C54.3571 29.7295 45.8426 22.182 40.6852 21.5399C35.1396 21.5057 30.6546 16.9996 30.6546 11.4459C30.6546 5.87105 35.1739 1.35173 40.7488 1.35173C46.3237 1.35173 50.843 5.87105 50.843 11.4459Z"/>
</mask>
<path fill-rule="evenodd" clip-rule="evenodd" d="M22.0253 11.4457C22.0253 13.252 21.5509 14.9474 20.7198 16.4143C18.7653 21.0123 21.4998 32.6792 31.0159 33.8935C36.3986 34.1107 40.6958 38.5432 40.6958 43.9793C40.6958 49.5542 36.1764 54.0735 30.6016 54.0735C25.0267 54.0735 20.5074 49.5542 20.5074 43.9793C20.5074 41.9753 21.0913 40.1078 22.0984 38.5375C25.5395 29.7293 17.025 22.1818 11.8676 21.5397C6.32194 21.5056 1.83691 16.9994 1.83691 11.4457C1.83691 5.87088 6.35623 1.35156 11.9311 1.35156C17.506 1.35156 22.0253 5.87088 22.0253 11.4457ZM69.5135 21.5401C75.0884 21.5401 79.6077 17.0208 79.6077 11.4459C79.6077 5.87105 75.0884 1.35173 69.5135 1.35173C63.9387 1.35173 59.4193 5.87105 59.4193 11.4459C59.4193 17.0208 63.9387 21.5401 69.5135 21.5401ZM50.843 11.4459C50.843 13.2523 50.3685 14.9479 49.5373 16.4148C47.5831 21.0131 50.3177 32.6794 59.8335 33.8936C65.2163 34.1109 69.5134 38.5434 69.5134 43.9795C69.5134 49.5543 64.9941 54.0736 59.4192 54.0736C53.8443 54.0736 49.325 49.5543 49.325 43.9795C49.325 41.9755 49.909 40.108 50.916 38.5377C54.3571 29.7295 45.8426 22.182 40.6852 21.5399C35.1396 21.5057 30.6546 16.9996 30.6546 11.4459C30.6546 5.87105 35.1739 1.35173 40.7488 1.35173C46.3237 1.35173 50.843 5.87105 50.843 11.4459Z" fill="white"/>
<path d="M20.7198 16.4143L19.8498 15.9213L19.8218 15.9708L19.7995 16.023L20.7198 16.4143ZM31.0159 33.8935L30.8893 34.8854L30.9323 34.8909L30.9755 34.8926L31.0159 33.8935ZM22.0984 38.5375L22.9401 39.0773L22.9937 38.9938L23.0298 38.9014L22.0984 38.5375ZM11.8676 21.5397L11.9911 20.5474L11.9326 20.5401L11.8737 20.5398L11.8676 21.5397ZM49.5373 16.4148L48.6673 15.9219L48.6392 15.9714L48.617 16.0237L49.5373 16.4148ZM59.8335 33.8936L59.7069 34.8856L59.7499 34.8911L59.7932 34.8928L59.8335 33.8936ZM50.916 38.5377L51.7578 39.0775L51.8113 38.994L51.8474 38.9016L50.916 38.5377ZM40.6852 21.5399L40.8087 20.5476L40.7503 20.5403L40.6914 20.5399L40.6852 21.5399ZM21.5899 16.9072C22.5039 15.294 23.0253 13.4292 23.0253 11.4457H21.0253C21.0253 13.0747 20.5979 14.6009 19.8498 15.9213L21.5899 16.9072ZM31.1425 32.9015C26.8278 32.3509 24.011 29.4407 22.4793 26.0146C21.7135 24.3017 21.285 22.4878 21.1631 20.8406C21.0401 19.1784 21.2343 17.7603 21.6401 16.8055L19.7995 16.023C19.2282 17.3672 19.0312 19.1317 19.1686 20.9882C19.307 22.8597 19.7904 24.9005 20.6535 26.8309C22.3794 30.6913 25.6879 34.2217 30.8893 34.8854L31.1425 32.9015ZM41.6958 43.9793C41.6958 38.0044 36.9729 33.1331 31.0562 32.8943L30.9755 34.8926C35.8243 35.0884 39.6958 39.082 39.6958 43.9793H41.6958ZM30.6016 55.0735C36.7287 55.0735 41.6958 50.1064 41.6958 43.9793H39.6958C39.6958 49.0019 35.6242 53.0735 30.6016 53.0735V55.0735ZM19.5074 43.9793C19.5074 50.1064 24.4744 55.0735 30.6016 55.0735V53.0735C25.579 53.0735 21.5074 49.0019 21.5074 43.9793H19.5074ZM21.2566 37.9977C20.1494 39.7242 19.5074 41.7783 19.5074 43.9793H21.5074C21.5074 42.1724 22.0333 40.4913 22.9401 39.0773L21.2566 37.9977ZM11.744 22.5321C13.9944 22.8123 17.1902 24.6732 19.4127 27.5833C21.6018 30.4498 22.7292 34.1748 21.1669 38.1736L23.0298 38.9014C24.9087 34.092 23.4994 29.6392 21.0022 26.3694C18.5382 23.1431 14.8981 20.9093 11.9911 20.5474L11.744 22.5321ZM0.836914 11.4457C0.836914 17.5496 5.76624 22.5021 11.8614 22.5397L11.8737 20.5398C6.87763 20.509 2.83691 16.4492 2.83691 11.4457H0.836914ZM11.9311 0.351562C5.80395 0.351562 0.836914 5.3186 0.836914 11.4457H2.83691C2.83691 6.42317 6.90852 2.35156 11.9311 2.35156V0.351562ZM23.0253 11.4457C23.0253 5.3186 18.0582 0.351562 11.9311 0.351562V2.35156C16.9537 2.35156 21.0253 6.42317 21.0253 11.4457H23.0253ZM78.6077 11.4459C78.6077 16.4685 74.5361 20.5401 69.5135 20.5401V22.5401C75.6407 22.5401 80.6077 17.5731 80.6077 11.4459H78.6077ZM69.5135 2.35173C74.5361 2.35173 78.6077 6.42334 78.6077 11.4459H80.6077C80.6077 5.31877 75.6407 0.351735 69.5135 0.351735V2.35173ZM60.4193 11.4459C60.4193 6.42334 64.4909 2.35173 69.5135 2.35173V0.351735C63.3864 0.351735 58.4193 5.31877 58.4193 11.4459H60.4193ZM69.5135 20.5401C64.4909 20.5401 60.4193 16.4685 60.4193 11.4459H58.4193C58.4193 17.5731 63.3864 22.5401 69.5135 22.5401V20.5401ZM50.4073 16.9078C51.3215 15.2945 51.843 13.4296 51.843 11.4459H49.843C49.843 13.0751 49.4155 14.6013 48.6673 15.9219L50.4073 16.9078ZM59.9601 32.9017C55.6456 32.3511 52.8288 29.4411 51.2971 26.0151C50.5313 24.3023 50.1027 22.4884 49.9808 20.8412C49.8577 19.179 50.0518 17.7609 50.4576 16.806L48.617 16.0237C48.0457 17.3679 47.8488 19.1324 47.9862 20.9889C48.1248 22.8603 48.6082 24.9011 49.4712 26.8314C51.1972 30.6917 54.5057 34.2219 59.7069 34.8856L59.9601 32.9017ZM70.5134 43.9795C70.5134 38.0046 65.7906 33.1333 59.8738 32.8944L59.7932 34.8928C64.642 35.0885 68.5134 39.0821 68.5134 43.9795H70.5134ZM59.4192 55.0736C65.5464 55.0736 70.5134 50.1066 70.5134 43.9795H68.5134C68.5134 49.002 64.4418 53.0736 59.4192 53.0736V55.0736ZM48.325 43.9795C48.325 50.1066 53.2921 55.0736 59.4192 55.0736V53.0736C54.3966 53.0736 50.325 49.002 50.325 43.9795H48.325ZM50.0742 37.9979C48.967 39.7244 48.325 41.7785 48.325 43.9795H50.325C50.325 42.1725 50.851 40.4915 51.7578 39.0775L50.0742 37.9979ZM40.5616 22.5322C42.8121 22.8124 46.0079 24.6734 48.2303 27.5835C50.4194 30.4499 51.5468 34.175 49.9846 38.1738L51.8474 38.9016C53.7263 34.0922 52.317 29.6394 49.8198 26.3696C47.3559 23.1433 43.7157 20.9095 40.8087 20.5476L40.5616 22.5322ZM29.6546 11.4459C29.6546 17.5498 34.5839 22.5023 40.679 22.5399L40.6914 20.5399C35.6953 20.5091 31.6546 16.4493 31.6546 11.4459H29.6546ZM40.7488 0.351735C34.6216 0.351735 29.6546 5.31877 29.6546 11.4459H31.6546C31.6546 6.42334 35.7262 2.35173 40.7488 2.35173V0.351735ZM51.843 11.4459C51.843 5.31877 46.8759 0.351735 40.7488 0.351735V2.35173C45.7714 2.35173 49.843 6.42334 49.843 11.4459H51.843Z" fill="white" mask="url(#path-1-outside-1_71_1075)"/>
</svg>
